# xmcd
#
# Track frame offsets:
#	150
#	22345
#	44490
#	65437
#	95652
#	114187
#	138947
#	159317
#	176960
#	206677
#
# Disc length: 3054 seconds
#
# Revision: 2
# Processed by: cddbd v1.5.2PL0 Copyright (c) Steve Scherf et al.
# Submitted via: EZCDAudioConverter 8.0.2.1
#
DISCID=8e0bec0a
DTITLE=Various Artist - Gửi Về Anh
DYEAR=1990
DGENRE=Contemporary Pop
TTITLE0=Ngọc Lan, Kiều Nga - Lời buồn thánh
TTITLE1=Elvis Phương - Một ngày không có em
TTITLE2=Như Mai - Gửi Về Anh
TTITLE3=Ngọc Lan - Rồi một ngày
TTITLE4=Kiều Nga - Phượng buồn
TTITLE5=Tuấn Vũ - Đừng hỏi tại sao
TTITLE6=Kiều Nga - Còn gì cho nhau
TTITLE7=Tuấn Anh - Trôi vào biển mộng
TTITLE8=Thúy Vy Lê - Từ đó em buồn
TTITLE9=Khánh Dung - Nếu một ngày
EXTD=
EXTT0=
EXTT1=
EXTT2=
EXTT3=
EXTT4=
EXTT5=
EXTT6=
EXTT7=
EXTT8=
EXTT9=
PLAYORDER=
